<?xml version="1.0" encoding="utf-8"?>
<!-- Generator: Adobe Illustrator 24.3.0, SVG Export Plug-In . SVG Version: 6.00 Build 0)  -->
<svg version="1.1" id="Calque_1" xmlns="http://www.w3.org/2000/svg" xmlns:xlink="http://www.w3.org/1999/xlink" x="0px" y="0px"
	 viewBox="0 0 1920 1080" style="enable-background:new 0 0 1920 1080;" xml:space="preserve">
<style type="text/css">
	.st0{fill:none;}
	.st1{display:none;fill:none;}
</style>
<path class="st0" d="M605.5,415.5c0,0,700.89,220.11,657.45,301.21C1219.5,797.8,605.5,415.5,605.5,415.5z"/>
<path class="st1" d="M1145.5,305.5c0,0,372.01,157.21,357,196C1490.5,532.5,1145.5,305.5,1145.5,305.5z"/>
<path class="st1" d="M433.45,363.3c0,0,275.87,173.26,256.05,205.2C671.5,597.5,433.45,363.3,433.45,363.3z"/>
<path class="st1" d="M753.35,817.23l9.85,51.72c0.18,0.93,0.92,1.64,1.85,1.78l42.87,6.35c2.33,0.35,2.59,3.61,0.34,4.31
	l-40.64,12.75c-0.7,0.22-1.25,0.78-1.46,1.49l-12.46,41.96c-0.63,2.14-3.67,2.11-4.27-0.04l-11.58-41.76
	c-0.22-0.79-0.86-1.4-1.67-1.58l-44.33-9.67c-2.3-0.5-2.34-3.76-0.06-4.32l42.41-10.4c0.79-0.19,1.42-0.81,1.62-1.6l13.19-51.12
	C749.62,814.8,752.91,814.9,753.35,817.23z"/>
<path class="st1" d="M1312.57,710.49l13.01,45.55c0.28,0.99,1.05,1.76,2.03,2.06l39.31,11.79c2.82,0.85,2.88,4.81,0.09,5.74
	l-43.4,14.47c-0.98,0.33-1.72,1.13-1.97,2.13l-8.55,34.56c-0.76,3.08-5.16,3.04-5.86-0.06l-7.78-34.29
	c-0.25-1.12-1.12-1.99-2.23-2.26l-46.64-11.26c-2.89-0.7-3.13-4.71-0.35-5.75l37.52-14.07c0.82-0.31,1.47-0.96,1.77-1.78
	l17.33-47.05C1307.85,707.54,1311.77,707.69,1312.57,710.49z"/>
<path class="st1" d="M403.87,635.99l8.01,50.44c0.15,0.92,0.87,1.64,1.8,1.77l44.18,6.31c2.29,0.33,2.48,3.55,0.25,4.15l-44.7,11.97
	c-0.78,0.21-1.38,0.85-1.53,1.65l-7.93,40.86c-0.43,2.23-3.59,2.31-4.14,0.11l-10.34-40.97c-0.2-0.8-0.84-1.4-1.65-1.56l-44.63-8.77
	c-2.26-0.44-2.29-3.67-0.04-4.16l43.67-9.53c0.81-0.18,1.44-0.81,1.62-1.61l11.29-50.79C400.21,633.58,403.51,633.68,403.87,635.99z
	"/>
</svg>
