<?xml version="1.0" encoding="utf-8"?>
<!-- Generator: Adobe Illustrator 24.3.0, SVG Export Plug-In . SVG Version: 6.00 Build 0)  -->
<svg version="1.1" xmlns="http://www.w3.org/2000/svg" xmlns:xlink="http://www.w3.org/1999/xlink" x="0px" y="0px"
	 viewBox="0 0 1920 1080" style="enable-background:new 0 0 1920 1080;" xml:space="preserve">
<style type="text/css">
	.st0{fill:none;}
	.st1{display:none;}
	.st2{display:inline;fill:#FFFF00;stroke:#9B8D11;stroke-width:8;stroke-miterlimit:10;}
</style>
<g id="Meteor_2_">
	<path d="M600.5,294.5c0,0,700.89,220.11,657.45,301.21C1214.5,676.8,600.5,294.5,600.5,294.5z"/>
</g>
<g id="Meteor_1_" class="st1">
	<path class="st2" d="M1228.5,213.5c0,0,372.01,157.21,357,196C1573.5,440.5,1228.5,213.5,1228.5,213.5z"/>
</g>
<g id="Meteor" class="st1">
	<path class="st2" d="M304.45,242.3c0,0,275.87,173.26,256.05,205.2C542.5,476.5,304.45,242.3,304.45,242.3z"/>
</g>
<g id="Etoile_2_" class="st1">
	<path class="st2" d="M837.35,771.23l9.85,51.72c0.18,0.93,0.92,1.64,1.85,1.78l42.87,6.35c2.33,0.35,2.59,3.61,0.34,4.31
		l-40.64,12.75c-0.7,0.22-1.25,0.78-1.46,1.49l-12.46,41.96c-0.63,2.14-3.67,2.11-4.27-0.04l-11.58-41.76
		c-0.22-0.79-0.86-1.4-1.67-1.58l-44.33-9.67c-2.3-0.5-2.34-3.76-0.06-4.32l42.41-10.4c0.79-0.19,1.42-0.81,1.62-1.6l13.19-51.12
		C833.62,768.8,836.91,768.9,837.35,771.23z"/>
</g>
<g id="Etoile_1_" class="st1">
	<path class="st2" d="M1390.57,663.49l13.01,45.55c0.28,0.99,1.05,1.76,2.03,2.06l39.31,11.79c2.82,0.85,2.88,4.81,0.09,5.74
		l-43.4,14.47c-0.98,0.33-1.72,1.13-1.97,2.13l-8.55,34.56c-0.76,3.08-5.16,3.04-5.86-0.06l-7.78-34.29
		c-0.25-1.12-1.12-1.99-2.23-2.26l-46.64-11.26c-2.89-0.7-3.13-4.71-0.35-5.75l37.52-14.07c0.82-0.31,1.47-0.96,1.77-1.78
		l17.33-47.05C1385.85,660.54,1389.77,660.69,1390.57,663.49z"/>
</g>
<g id="Etoile" class="st1">
	<path class="st2" d="M333.87,687.99l8.01,50.44c0.15,0.92,0.87,1.64,1.8,1.77l44.18,6.31c2.29,0.33,2.48,3.55,0.25,4.15
		l-44.7,11.97c-0.78,0.21-1.38,0.85-1.53,1.65l-7.93,40.86c-0.43,2.23-3.59,2.31-4.14,0.11l-10.34-40.97
		c-0.2-0.8-0.84-1.4-1.65-1.56l-44.63-8.77c-2.26-0.44-2.29-3.67-0.04-4.16l43.67-9.53c0.81-0.18,1.44-0.81,1.62-1.61l11.29-50.79
		C330.21,685.58,333.51,685.68,333.87,687.99z"/>
</g>
</svg>
