<?xml version="1.0" encoding="utf-8"?>
<!-- Generator: Adobe Illustrator 24.3.0, SVG Export Plug-In . SVG Version: 6.00 Build 0)  -->
<svg version="1.1" id="Etoile_1_" xmlns="http://www.w3.org/2000/svg" xmlns:xlink="http://www.w3.org/1999/xlink" x="0px" y="0px"
	 viewBox="0 0 1920 1080" style="enable-background:new 0 0 1920 1080;" xml:space="preserve">
<style type="text/css">
	.st0{fill:#FFFF00;stroke:#9B8D11;stroke-width:8;stroke-miterlimit:10;}
</style>
<path class="st0" d="M1390.57,663.49l13.01,45.55c0.28,0.99,1.05,1.76,2.03,2.06l39.31,11.79c2.82,0.85,2.88,4.81,0.09,5.74
	l-43.4,14.47c-0.98,0.33-1.72,1.13-1.97,2.13l-8.55,34.56c-0.76,3.08-5.16,3.04-5.86-0.06l-7.78-34.29
	c-0.25-1.12-1.12-1.99-2.23-2.26l-46.64-11.26c-2.89-0.7-3.13-4.71-0.35-5.75l37.52-14.07c0.82-0.31,1.47-0.96,1.77-1.78
	l17.33-47.05C1385.85,660.54,1389.77,660.69,1390.57,663.49z"/>
</svg>
