<?xml version="1.0" encoding="utf-8"?>
<!-- Generator: Adobe Illustrator 24.3.0, SVG Export Plug-In . SVG Version: 6.00 Build 0)  -->
<svg version="1.1" id="Etoile_2_" xmlns="http://www.w3.org/2000/svg" xmlns:xlink="http://www.w3.org/1999/xlink" x="0px" y="0px"
	 viewBox="0 0 1920 1080" style="enable-background:new 0 0 1920 1080;" xml:space="preserve">
<style type="text/css">
	.st0{fill:#FFFF00;stroke:#9B8D11;stroke-width:8;stroke-miterlimit:10;}
</style>
<path class="st0" d="M837.35,771.23l9.85,51.72c0.18,0.93,0.92,1.64,1.85,1.78l42.87,6.35c2.33,0.35,2.59,3.61,0.34,4.31
	l-40.64,12.75c-0.7,0.22-1.25,0.78-1.46,1.49l-12.46,41.96c-0.63,2.14-3.67,2.11-4.27-0.04l-11.58-41.76
	c-0.22-0.79-0.86-1.4-1.67-1.58l-44.33-9.67c-2.3-0.5-2.34-3.76-0.06-4.32l42.41-10.4c0.79-0.19,1.42-0.81,1.62-1.6l13.19-51.12
	C833.62,768.8,836.91,768.9,837.35,771.23z"/>
</svg>
