<?xml version="1.0" encoding="utf-8"?>
<!-- Generator: Adobe Illustrator 24.3.0, SVG Export Plug-In . SVG Version: 6.00 Build 0)  -->
<svg version="1.1" id="Etoile" xmlns="http://www.w3.org/2000/svg" xmlns:xlink="http://www.w3.org/1999/xlink" x="0px" y="0px"
	 viewBox="0 0 1920 1080" style="enable-background:new 0 0 1920 1080;" xml:space="preserve">
<style type="text/css">
	.st0{fill:#FFFF00;stroke:#9B8D11;stroke-width:8;stroke-miterlimit:10;}
</style>
<path class="st0" d="M333.87,687.99l8.01,50.44c0.15,0.92,0.87,1.64,1.8,1.77l44.18,6.31c2.29,0.33,2.48,3.55,0.25,4.15l-44.7,11.97
	c-0.78,0.21-1.38,0.85-1.53,1.65l-7.93,40.86c-0.43,2.23-3.59,2.31-4.14,0.11l-10.34-40.97c-0.2-0.8-0.84-1.4-1.65-1.56l-44.63-8.77
	c-2.26-0.44-2.29-3.67-0.04-4.16l43.67-9.53c0.81-0.18,1.44-0.81,1.62-1.61l11.29-50.79C330.21,685.58,333.51,685.68,333.87,687.99z
	"/>
</svg>
